<?xml version="1.0" standalone="no"?><!DOCTYPE svg PUBLIC "-//W3C//DTD SVG 1.1//EN" "http://www.w3.org/Graphics/SVG/1.1/DTD/svg11.dtd"><svg t="1619611877524" class="icon" viewBox="0 0 1092 1024" version="1.1" xmlns="http://www.w3.org/2000/svg" p-id="11645" data-spm-anchor-id="a313x.7781069.0.i4" xmlns:xlink="http://www.w3.org/1999/xlink" width="17.0625" height="16"><defs><style type="text/css"></style></defs><path d="M204.703442 614.593116a204.703442 204.703442 0 1 0 204.944837 204.703442 204.703442 204.703442 0 0 0-204.944837-204.703442zM887.370108 614.593116a204.703442 204.703442 0 1 0 204.703442 204.703442 204.944837 204.944837 0 0 0-204.703442-204.703442z" fill="#515151" p-id="11646" data-spm-anchor-id="a313x.7781069.0.i1" class="selected"></path><path d="M732.152758 551.588873c7.724658 9.173032 17.139085 15.690712 27.76049 15.690712h10.621405a79.177746 79.177746 0 0 0 16.89769 0h154.734559c25.105139 0 45.382367-30.657237 45.382367-68.314946s-20.277228-68.314946-45.382367-68.314945h-140.250825l-43.451202-38.623291a139.768034 139.768034 0 0 0-212.4281-180.32249l-197.944366 197.944366a139.768034 139.768034 0 0 0 129.62942 235.360679v174.2876a68.314946 68.314946 0 1 0 136.629892 0V546.278171a40.795851 40.795851 0 0 0-1.206978-5.793494l50.210278-49.968883z" fill="#1BA4C8" p-id="11647" data-spm-anchor-id="a313x.7781069.0.i2" class=""></path><path d="M887.370108 273.259783A136.629892 136.629892 0 1 0 750.740217 136.629892a136.388496 136.388496 0 0 0 136.629891 136.629891z" fill="#1BA4C8" p-id="11648" data-spm-anchor-id="a313x.7781069.0.i3" class=""></path></svg>